<svg width="35" height="36" viewBox="0 0 35 36" fill="none" xmlns="http://www.w3.org/2000/svg">
<circle cx="17.3268" cy="17.9937" r="17.3141" fill="white"/>
<path d="M17.3271 0.679565C26.8893 0.679755 34.6406 8.43182 34.6406 17.994C34.6404 27.5561 26.8892 35.3073 17.3271 35.3075C7.76495 35.3075 0.012885 27.5562 0.0126953 17.994C0.0126953 8.4317 7.76483 0.679565 17.3271 0.679565ZM17.7949 9.10242C16.8721 9.10242 16.1232 9.8505 16.123 10.7733V16.4559C16.123 16.6405 15.9736 16.7899 15.7891 16.7899H10.1074C9.18448 16.7899 8.43555 17.5389 8.43555 18.4618C8.4358 19.3845 9.18464 20.1327 10.1074 20.1327H15.7891C15.9736 20.1327 16.123 20.2821 16.123 20.4667V26.1493C16.1232 27.0721 16.8721 27.8202 17.7949 27.8202C18.7177 27.8201 19.4657 27.0721 19.4658 26.1493V20.4667C19.4659 20.2823 19.6155 20.1329 19.7998 20.1327H25.4824C26.4052 20.1327 27.1531 19.3845 27.1533 18.4618C27.1533 17.5389 26.4054 16.7899 25.4824 16.7899H19.7998C19.6155 16.7897 19.4659 16.6403 19.4658 16.4559V10.7733C19.4657 9.85056 18.7177 9.10251 17.7949 9.10242Z" fill="#1B8036"/>
</svg>
