<svg width="10" height="10" viewBox="0 0 10 10" fill="none" xmlns="http://www.w3.org/2000/svg">
<g opacity="0.5">
<path d="M9.84016 2.54029L9.5126 2.21045C9.40951 2.10744 9.27235 2.0507 9.12577 2.0507C8.97926 2.0507 8.84194 2.10744 8.73885 2.21045L5.00224 5.94723L1.26131 2.20631C1.15838 2.1033 1.02107 2.04663 0.87456 2.04663C0.728055 2.04663 0.590655 2.1033 0.487646 2.20631L0.160001 2.53411C-0.0533338 2.74729 -0.0533338 3.09453 0.160001 3.3077L4.61402 7.77773C4.71695 7.88066 4.8541 7.95318 5.00191 7.95318H5.00362C5.1502 7.95318 5.28736 7.88058 5.39029 7.77773L9.84016 3.31981C9.94325 3.21688 9.99984 3.07558 10 2.92908C10 2.78249 9.94325 2.64314 9.84016 2.54029Z" fill="black"/>
</g>
</svg>
