<svg width="30" height="30" viewBox="0 0 30 30" fill="none" xmlns="http://www.w3.org/2000/svg">
<g clip-path="url(#clip0_515_1303)">
<path d="M0 15C0 6.71575 6.71575 0 15 0C23.2843 0 30 6.71575 30 15C30 23.2843 23.2843 30 15 30C6.71575 30 0 23.2843 0 15Z" fill="#0C0C0C"/>
<mask id="mask0_515_1303" style="mask-type:alpha" maskUnits="userSpaceOnUse" x="0" y="0" width="30" height="30">
<path fill-rule="evenodd" clip-rule="evenodd" d="M0 15C0 6.71575 6.71575 0 15 0C23.2843 0 30 6.71575 30 15C30 23.2843 23.2843 30 15 30C6.71575 30 0 23.2843 0 15Z" fill="white"/>
</mask>
<g mask="url(#mask0_515_1303)">
<path fill-rule="evenodd" clip-rule="evenodd" d="M15.001 6.99993C12.8283 6.99993 12.5556 7.00943 11.7023 7.04824C10.8506 7.08724 10.2692 7.22205 9.76062 7.41993C9.23443 7.62424 8.78812 7.89755 8.34343 8.34243C7.89843 8.78705 7.62506 9.23343 7.42006 9.75943C7.22174 10.2682 7.08674 10.8497 7.04843 11.7011C7.01024 12.5544 7.00024 12.8273 7.00024 15C7.00024 17.1727 7.00993 17.4445 7.04856 18.2979C7.08774 19.1496 7.22256 19.7309 7.42024 20.2396C7.62474 20.7657 7.89806 21.2121 8.34293 21.6567C8.78743 22.1017 9.23374 22.3757 9.75962 22.5801C10.2686 22.7779 10.8501 22.9127 11.7016 22.9517C12.555 22.9906 12.8275 23.0001 15 23.0001C17.1729 23.0001 17.4447 22.9906 18.298 22.9517C19.1497 22.9127 19.7317 22.7779 20.2407 22.5801C20.7667 22.3757 21.2124 22.1017 21.6569 21.6567C22.1019 21.2121 22.3752 20.7657 22.5802 20.2397C22.7769 19.7309 22.9119 19.1494 22.9519 18.298C22.9902 17.4447 23.0002 17.1727 23.0002 15C23.0002 12.8273 22.9902 12.5546 22.9519 11.7013C22.9119 10.8496 22.7769 10.2682 22.5802 9.75962C22.3752 9.23343 22.1019 8.78705 21.6569 8.34243C21.2119 7.89743 20.7669 7.62405 20.2402 7.41993C19.7302 7.22205 19.1486 7.08724 18.2969 7.04824C17.4435 7.00943 17.1719 6.99993 14.9985 6.99993H15.001ZM14.7342 8.44149H14.7344L15.001 8.44155C17.137 8.44155 17.3902 8.44924 18.2337 8.48755C19.0137 8.52324 19.4371 8.65355 19.7191 8.76305C20.0924 8.90805 20.3586 9.08143 20.6384 9.36143C20.9184 9.64143 21.0917 9.90811 21.2371 10.2814C21.3466 10.5631 21.4771 10.9864 21.5126 11.7664C21.5509 12.6098 21.5592 12.8631 21.5592 14.9982C21.5592 17.1332 21.5509 17.3865 21.5126 18.2299C21.4769 19.0099 21.3466 19.4332 21.2371 19.7149C21.0921 20.0882 20.9184 20.3541 20.6384 20.6339C20.3584 20.9139 20.0926 21.0872 19.7191 21.2322C19.4374 21.3422 19.0137 21.4722 18.2337 21.5079C17.3904 21.5462 17.137 21.5546 15.001 21.5546C12.8648 21.5546 12.6116 21.5462 11.7683 21.5079C10.9883 21.4719 10.5649 21.3416 10.2828 21.2321C9.90943 21.0871 9.64274 20.9137 9.36274 20.6337C9.08274 20.3537 8.90943 20.0877 8.76412 19.7142C8.65462 19.4326 8.52412 19.0092 8.48862 18.2292C8.45024 17.3859 8.44262 17.1325 8.44262 14.9962C8.44262 12.8598 8.45024 12.6078 8.48862 11.7644C8.52424 10.9844 8.65462 10.5611 8.76412 10.2791C8.90912 9.90574 9.08274 9.63912 9.36274 9.35912C9.64274 9.07912 9.90943 8.90574 10.2828 8.76043C10.5648 8.65043 10.9883 8.52043 11.7683 8.48455C12.5063 8.45124 12.7923 8.44124 14.2833 8.43955V8.44155C14.4226 8.44137 14.5725 8.44143 14.7342 8.44149ZM18.3114 10.7296C18.3114 10.1994 18.7414 9.76993 19.2714 9.76993V9.76962C19.8014 9.76962 20.2314 10.1996 20.2314 10.7296C20.2314 11.2596 19.8014 11.6896 19.2714 11.6896C18.7414 11.6896 18.3114 11.2596 18.3114 10.7296ZM15.0008 10.8916C12.7321 10.8917 10.8926 12.7312 10.8926 15C10.8926 17.2689 12.7321 19.1076 15.001 19.1076C17.2699 19.1076 19.1087 17.2689 19.1087 15C19.1087 12.7311 17.2697 10.8916 15.0008 10.8916ZM17.6677 15C17.6677 13.5271 16.4737 12.3333 15.001 12.3333C13.5281 12.3333 12.3343 13.5271 12.3343 15C12.3343 16.4727 13.5281 17.6667 15.001 17.6667C16.4737 17.6667 17.6677 16.4727 17.6677 15Z" fill="white"/>
</g>
</g>
<defs>
<clipPath id="clip0_515_1303">
<rect width="30" height="30" fill="white"/>
</clipPath>
</defs>
</svg>
