<svg width="30" height="30" viewBox="0 0 30 30" fill="none" xmlns="http://www.w3.org/2000/svg">
<g clip-path="url(#clip0_515_1309)">
<path d="M0 15C0 6.71575 6.71575 0 15 0C23.2843 0 30 6.71575 30 15C30 23.2843 23.2843 30 15 30C6.71575 30 0 23.2843 0 15Z" fill="#0C0C0C"/>
<path fill-rule="evenodd" clip-rule="evenodd" d="M10.8245 9.26419C10.8245 10.2449 10.0862 11.0296 8.90099 11.0296H8.87924C7.73806 11.0296 7.00024 10.2449 7.00024 9.26419C7.00024 8.26275 7.76049 7.5 8.92337 7.5C10.0862 7.5 10.8024 8.26275 10.8245 9.26419ZM10.6006 12.4236V22.6373H7.20124V12.4236H10.6006ZM22.8597 22.6373L22.8599 16.7811C22.8599 13.6439 21.1829 12.1838 18.9459 12.1838C17.1411 12.1838 16.3331 13.1751 15.8819 13.8706V12.4239H12.4822C12.527 13.3823 12.4822 22.6375 12.4822 22.6375H15.8819V16.9334C15.8819 16.6281 15.904 16.3236 15.9939 16.1051C16.2396 15.4953 16.7989 14.8639 17.7381 14.8639C18.9686 14.8639 19.4606 15.8004 19.4606 17.1729V22.6373H22.8597Z" fill="white"/>
</g>
<defs>
<clipPath id="clip0_515_1309">
<rect width="30" height="30" fill="white"/>
</clipPath>
</defs>
</svg>
