<svg width="30" height="30" viewBox="0 0 30 30" fill="none" xmlns="http://www.w3.org/2000/svg">
<g clip-path="url(#clip0_515_1297)">
<path d="M0 15C0 6.71575 6.71575 0 15 0C23.2843 0 30 6.71575 30 15C30 23.2843 23.2843 30 15 30C6.71575 30 0 23.2843 0 15Z" fill="#0C0C0C"/>
<path d="M14.5508 12.1922L14.5823 12.7113L14.0576 12.6477C12.1481 12.4041 10.4798 11.5779 9.06331 10.1902L8.37088 9.50173L8.1925 10.0102C7.81475 11.1436 8.05606 12.3405 8.843 13.1455C9.26269 13.5905 9.16825 13.654 8.44431 13.3892C8.1925 13.3045 7.97213 13.2409 7.95119 13.2727C7.87775 13.3469 8.12956 14.3107 8.32887 14.6921C8.60169 15.2217 9.15775 15.7407 9.76631 16.0479L10.2804 16.2915L9.67188 16.3022C9.08431 16.3022 9.06331 16.3127 9.12631 16.5352C9.33613 17.2237 10.165 17.9546 11.0883 18.2724L11.7389 18.4948L11.1723 18.8337C10.3329 19.321 9.34663 19.5964 8.36038 19.6176C7.88819 19.6282 7.5 19.6705 7.5 19.7024C7.5 19.8083 8.78006 20.4015 9.525 20.6345C11.7598 21.323 14.4144 21.0264 16.4079 19.8507C17.8243 19.0139 19.2408 17.3508 19.9018 15.7407C20.2585 14.8827 20.6153 13.315 20.6153 12.563C20.6153 12.0757 20.6467 12.0122 21.2343 11.4296C21.5805 11.0906 21.9058 10.7199 21.9688 10.614C22.0736 10.4127 22.0632 10.4127 21.5281 10.5928C20.6363 10.9105 20.5103 10.8682 20.951 10.3915C21.2763 10.0525 21.6644 9.43816 21.6644 9.2581C21.6644 9.22635 21.5071 9.27929 21.3287 9.3746C21.1399 9.48054 20.7202 9.63941 20.4054 9.73479L19.8388 9.91485L19.3247 9.56529C19.0414 9.3746 18.6427 9.16279 18.4329 9.09923C17.8978 8.95091 17.0794 8.9721 16.5968 9.1416C15.2852 9.61829 14.4563 10.847 14.5508 12.1922Z" fill="white"/>
</g>
<defs>
<clipPath id="clip0_515_1297">
<rect width="30" height="30" fill="white"/>
</clipPath>
</defs>
</svg>
