<svg width="19" height="23" viewBox="0 0 19 23" fill="none" xmlns="http://www.w3.org/2000/svg">
<path d="M9.37472 22.5C9.89222 22.5 10.3122 22.08 10.3122 21.5625L10.3122 2.85984L17.1335 10.0214C17.4902 10.3959 18.0832 10.4114 18.4591 10.0538C18.8341 9.69656 18.8486 9.10359 18.4914 8.72859L10.7008 0.549375C10.3464 0.195 9.87582 0 9.37472 0C8.8741 0 8.403 0.195 8.03316 0.565782L0.258471 8.72859C-0.0987163 9.10359 -0.0837162 9.69656 0.290815 10.0538C0.665346 10.4114 1.25879 10.3964 1.61597 10.0214L8.43722 2.82984L8.43722 21.5625C8.43722 22.08 8.85722 22.5 9.37472 22.5Z" fill="#44A55D"/>
</svg>
